<?xml version="1.0" encoding="utf-8"?>
<!-- Generator: Adobe Illustrator 19.1.0, SVG Export Plug-In . SVG Version: 6.00 Build 0)  -->
<!DOCTYPE svg PUBLIC "-//W3C//DTD SVG 1.1//EN" "http://www.w3.org/Graphics/SVG/1.1/DTD/svg11.dtd">
<svg version="1.1" xmlns="http://www.w3.org/2000/svg" xmlns:xlink="http://www.w3.org/1999/xlink" x="0px" y="0px"
	 viewBox="0 0 24 24" style="enable-background:new 0 0 24 24;" xml:space="preserve">
<style type="text/css">
	.st0{clip-path:url(#SVGID_2_);}
	.st1{fill:#2CC4D1;}
	.st2{fill:#FEFEFE;}
	.st3{fill:#FDFEFE;}
</style>
<g id="Layer_2">
</g>
<g id="Layer_1">
	<g>
		<defs>
			<path id="SVGID_1_" d="M23,24.1H1.3c-0.6,0-1.1-0.5-1.1-1.1l0-21.7c0-0.6,0.5-1.1,1.1-1.1l21.7,0c0.6,0,1.1,0.5,1.1,1.1v21.7
				C24.1,23.6,23.6,24.1,23,24.1z"/>
		</defs>
		<clipPath id="SVGID_2_">
			<use xlink:href="#SVGID_1_"  style="overflow:visible;"/>
		</clipPath>
		<g class="st0">
			<path class="st1" d="M24.6-0.4c0,8,0,16,0,24c0,0.5-0.1,0.6-0.6,0.6c-7.8,0-15.6,0-23.4,0c-0.5,0-0.6-0.1-0.6-0.6c0-8,0-16,0-24
				c0.2-0.1,0.5-0.1,0.7-0.1c7.7,0,15.4,0,23.2,0C24.1-0.5,24.4-0.5,24.6-0.4z"/>
			<path class="st2" d="M24.6-0.4c-8.2,0-16.4,0-24.6,0C0-0.7,0.2-0.6,0.3-0.6c8,0,16.1,0,24.1,0C24.4-0.6,24.6-0.7,24.6-0.4z"/>
			<path class="st2" d="M14.3,5.6c1.9,0,3.8,0,5.7,0c0.6,0,1,0.1,1,0.8c0,0.7-0.5,0.8-1,0.8c-3.8,0-7.6,0-11.5,0c-0.6,0-1-0.2-1-0.8
				c0-0.7,0.4-0.9,1-0.9C10.5,5.6,12.4,5.6,14.3,5.6z"/>
			<path class="st2" d="M14.3,9.3c1.9,0,3.8,0,5.7,0c0.6,0,1,0.1,1.1,0.8c0,0.7-0.4,0.8-1,0.8c-3.8,0-7.6,0-11.5,0
				c-0.6,0-1-0.2-1-0.8c0-0.6,0.4-0.8,1-0.8C10.5,9.3,12.4,9.3,14.3,9.3z"/>
			<path class="st2" d="M14.3,18.2c-1.9,0-3.8,0-5.6,0c-0.6,0-1.1-0.1-1.1-0.8c0-0.7,0.5-0.9,1.1-0.9c3.8,0,7.5,0,11.3,0
				c0.6,0,1.1,0.1,1.1,0.8c0,0.7-0.5,0.8-1.1,0.8C18.1,18.2,16.2,18.2,14.3,18.2z"/>
			<path class="st2" d="M14.3,14.5c-1.9,0-3.8,0-5.6,0c-0.5,0-1-0.1-1-0.7c0-0.7,0.5-0.7,1-0.7c3.8,0,7.6,0,11.5,0
				c0.5,0,1,0.1,1,0.7c0,0.7-0.5,0.7-1,0.7C18.1,14.5,16.2,14.5,14.3,14.5z"/>
			<path class="st3" d="M6,10c0,0.7-0.5,1.3-1.2,1.3c-0.7,0-1.3-0.5-1.3-1.3c0-0.7,0.5-1.2,1.2-1.3C5.4,8.8,6,9.3,6,10z"/>
			<path class="st3" d="M4.8,12.4C5.5,12.5,6,13,6,13.8C6,14.4,5.5,15,4.8,15c-0.7,0-1.3-0.5-1.3-1.3C3.5,13,4,12.4,4.8,12.4z"/>
			<path class="st3" d="M4.8,5.1C5.5,5.1,6,5.7,6,6.4c0,0.7-0.5,1.3-1.3,1.3c-0.7,0-1.3-0.6-1.3-1.3C3.5,5.7,4.1,5.1,4.8,5.1z"/>
			<path class="st3" d="M6,17.4c0,0.7-0.6,1.3-1.3,1.3c-0.7,0-1.3-0.6-1.2-1.3c0-0.7,0.6-1.3,1.3-1.3C5.5,16.1,6,16.7,6,17.4z"/>
		</g>
	</g>
</g>
</svg>
