<?xml version="1.0" encoding="utf-8"?>
<!-- Generator: Adobe Illustrator 19.1.0, SVG Export Plug-In . SVG Version: 6.00 Build 0)  -->
<!DOCTYPE svg PUBLIC "-//W3C//DTD SVG 1.1//EN" "http://www.w3.org/Graphics/SVG/1.1/DTD/svg11.dtd">
<svg version="1.1" id="Layer_1" xmlns="http://www.w3.org/2000/svg" xmlns:xlink="http://www.w3.org/1999/xlink" x="0px" y="0px"
	 viewBox="0 0 128 128" style="enable-background:new 0 0 128 128;" xml:space="preserve">
<style type="text/css">
	.st0{opacity:0.6;fill:#D1D1D1;}
	.st1{clip-path:url(#SVGID_2_);}
	.st2{fill:#2CC4D1;}
	.st3{fill:#FEFEFE;}
	.st4{fill:#FDFEFE;}
</style>
<path class="st0" d="M120.7,127.8H11.2c-4,0-7.3-3.2-7.3-7.3V11c0-4,3.2-7.3,7.3-7.3h109.5c4,0,7.3,3.2,7.3,7.3v109.5
	C128,124.6,124.8,127.8,120.7,127.8z"/>
<g>
	<defs>
		<path id="SVGID_1_" d="M118.2,124.4H6.4c-3.4,0-6.1-2.7-6.1-6.1V6.5c0-3.4,2.7-6.1,6.1-6.1h111.8c3.4,0,6.1,2.7,6.1,6.1v111.8
			C124.4,121.6,121.6,124.4,118.2,124.4z"/>
	</defs>
	<clipPath id="SVGID_2_">
		<use xlink:href="#SVGID_1_"  style="overflow:visible;"/>
	</clipPath>
	<g class="st1">
		<path class="st2" d="M126.7-2.1c0,41.4,0,82.7,0.1,124.1c0,2.5-0.5,3-3,3c-40.4-0.1-80.8-0.1-121.2,0c-2.5,0-3-0.5-3-3
			C-0.3,80.6-0.3,39.3-0.3-2.1c1.2-0.7,2.4-0.4,3.7-0.4c39.9,0,79.8,0,119.7,0C124.3-2.5,125.6-2.8,126.7-2.1z"/>
		<path class="st3" d="M126.7-2.1c-42.3,0-84.7,0-127,0c-0.3-1.3,0.7-0.8,1.3-0.8c41.5,0,83,0,124.5,0C126-2.9,127-3.4,126.7-2.1z"
			/>
		<path class="st3" d="M73.7,28.8c9.9,0,19.7,0,29.6,0c3,0,5.4,0.8,5.4,4.2c0,3.5-2.4,4.2-5.4,4.2c-19.7-0.1-39.5-0.1-59.2,0
			c-2.9,0-5.1-0.8-5.2-4c-0.1-3.4,2.1-4.4,5.2-4.4C54,28.9,63.8,28.8,73.7,28.8z"/>
		<path class="st3" d="M73.6,48.1c9.9,0,19.7,0,29.6,0c3,0,5.4,0.7,5.5,4.1c0,3.4-2.2,4.3-5.3,4.3c-19.7-0.1-39.5-0.1-59.2,0
			c-3.1,0-5.3-0.9-5.2-4.3C39,48.9,41.1,48,44,48C53.9,48.1,63.7,48.1,73.6,48.1z"/>
		<path class="st3" d="M73.7,94c-9.7,0-19.4,0-29.2,0c-3,0-5.5-0.5-5.6-4c-0.1-3.7,2.4-4.4,5.6-4.4c19.4,0.1,38.9,0.1,58.3,0
			c3.1,0,5.8,0.4,5.8,4.2c0,3.8-2.7,4.2-5.8,4.2C93.1,94,83.4,94,73.7,94z"/>
		<path class="st3" d="M73.4,74.8c-9.7,0-19.5,0-29.2,0c-2.7,0-5.3-0.3-5.3-3.7c0-3.4,2.4-3.8,5.2-3.8c19.7,0,39.5,0,59.2,0
			c2.7,0,5.3,0.3,5.3,3.7c0,3.4-2.4,3.9-5.2,3.8C93.4,74.8,83.4,74.8,73.4,74.8z"/>
		<path class="st4" d="M30.7,51.8c0.1,3.8-2.7,6.7-6.5,6.7c-3.8,0-6.6-2.8-6.6-6.6c0-3.6,2.7-6.4,6.3-6.5
			C27.7,45.3,30.6,48,30.7,51.8z"/>
		<path class="st4" d="M24.3,64.4c3.7,0,6.5,3,6.4,6.7c-0.1,3.6-2.8,6.3-6.4,6.3c-3.8,0.1-6.7-2.8-6.7-6.5
			C17.7,67.1,20.5,64.3,24.3,64.4z"/>
		<path class="st4" d="M24.2,26.3c3.7,0,6.5,2.9,6.5,6.6c0,3.7-2.8,6.6-6.5,6.6c-3.7,0-6.6-2.9-6.6-6.6
			C17.7,29.3,20.7,26.3,24.2,26.3z"/>
		<path class="st4" d="M30.7,90c-0.1,3.7-3,6.6-6.6,6.5c-3.6,0-6.5-3.1-6.4-6.8c0.1-3.7,3-6.6,6.7-6.5C28,83.3,30.8,86.2,30.7,90z"
			/>
	</g>
</g>
</svg>
