<?xml version="1.0" encoding="utf-8"?>
<!-- Generator: Adobe Illustrator 19.1.0, SVG Export Plug-In . SVG Version: 6.00 Build 0)  -->
<!DOCTYPE svg PUBLIC "-//W3C//DTD SVG 1.1//EN" "http://www.w3.org/Graphics/SVG/1.1/DTD/svg11.dtd">
<svg version="1.1" id="Layer_1" xmlns="http://www.w3.org/2000/svg" xmlns:xlink="http://www.w3.org/1999/xlink" x="0px" y="0px"
	 viewBox="0 0 300 300" style="enable-background:new 0 0 300 300;" xml:space="preserve">
<style type="text/css">
	.st0{clip-path:url(#SVGID_2_);}
	.st1{fill:#2CC4D1;}
	.st2{fill:#FEFEFE;}
	.st3{fill:#FDFEFE;}
</style>
<g>
	<defs>
		<rect id="SVGID_1_" x="0.7" y="0.3" width="300" height="300"/>
	</defs>
	<clipPath id="SVGID_2_">
		<use xlink:href="#SVGID_1_"  style="overflow:visible;"/>
	</clipPath>
	<g class="st0">
		<path class="st1" d="M306.4-5.6c0,100-0.1,200.1,0.2,300.1c0,6-1.2,7.3-7.2,7.2c-97.7-0.2-195.4-0.2-293.1,0c-6,0-7.3-1.2-7.2-7.2
			c0.2-100,0.2-200.1,0.2-300.1c2.8-1.7,5.9-1,8.9-1c96.5,0,193,0,289.5,0C300.5-6.6,303.6-7.3,306.4-5.6z"/>
		<path class="st2" d="M306.4-5.6c-102.4,0-204.8,0-307.2,0c-0.7-3.2,1.8-2,3-2c100.4,0,200.8,0,301.2,0
			C304.6-7.6,307.1-8.8,306.4-5.6z"/>
		<path class="st2" d="M178.2,69.2c23.9,0,47.7,0.1,71.6-0.1c7.4-0.1,13,1.8,13,10.2c0,8.4-5.7,10.2-13.1,10.1
			c-47.7-0.1-95.4-0.1-143.1,0c-7,0-12.3-2-12.5-9.7c-0.3-8.3,5-10.7,12.5-10.6C130.4,69.3,154.3,69.2,178.2,69.2z"/>
		<path class="st2" d="M178,115.7c23.9,0,47.7,0.1,71.6-0.1c7.3-0.1,13.1,1.6,13.2,10c0.1,8.3-5.4,10.4-12.9,10.3
			c-47.7-0.1-95.4-0.1-143.1,0c-7.5,0-12.8-2.2-12.7-10.5c0.1-7.7,5.3-9.9,12.3-9.8C130.2,115.8,154.1,115.7,178,115.7z"/>
		<path class="st2" d="M178.1,226.8c-23.5,0-47-0.1-70.6,0.1c-7.2,0.1-13.2-1.3-13.5-9.7c-0.3-9.1,5.9-10.7,13.6-10.6
			c47,0.1,94.1,0.1,141.1,0c7.5,0,14,1.1,14,10.2c0,9.2-6.6,10.2-14.1,10.1C225.1,226.7,201.6,226.8,178.1,226.8z"/>
		<path class="st2" d="M177.5,180.3c-23.5,0-47.1-0.1-70.6,0c-6.5,0-12.7-0.6-12.9-9c-0.1-8.3,5.9-9.3,12.6-9.3
			c47.7,0.1,95.5,0.1,143.2,0c6.6,0,12.8,0.8,12.9,9c0.1,8.2-5.9,9.3-12.6,9.3C225.9,180.3,201.7,180.3,177.5,180.3z"/>
		<path class="st3" d="M74.3,124.7c0.2,9.1-6.6,16.2-15.6,16.2c-9.2,0-16-6.7-16-15.9c0-8.6,6.5-15.4,15.2-15.7
			C67,109,74,115.6,74.3,124.7z"/>
		<path class="st3" d="M58.7,155.1c9,0.1,15.8,7.2,15.5,16.3c-0.2,8.7-6.8,15.2-15.5,15.3c-9.1,0.2-16.1-6.7-16.1-15.8
			C42.7,161.8,49.5,155,58.7,155.1z"/>
		<path class="st3" d="M58.5,63.2c8.9,0.1,15.7,7.1,15.8,16.1c0,9-6.9,16.1-15.7,16c-8.8,0-15.9-7.1-15.8-16
			C42.7,70.4,49.9,63.1,58.5,63.2z"/>
		<path class="st3" d="M74.3,217.1c-0.1,8.9-7.2,15.8-16,15.8c-8.6-0.1-15.7-7.5-15.5-16.3c0.1-8.9,7.3-15.9,16.1-15.7
			C67.7,200.9,74.4,208,74.3,217.1z"/>
	</g>
</g>
</svg>
