<?xml version="1.0" encoding="utf-8"?>
<!-- Generator: Adobe Illustrator 19.1.0, SVG Export Plug-In . SVG Version: 6.00 Build 0)  -->
<!DOCTYPE svg PUBLIC "-//W3C//DTD SVG 1.1//EN" "http://www.w3.org/Graphics/SVG/1.1/DTD/svg11.dtd">
<svg version="1.1" id="Layer_1" xmlns="http://www.w3.org/2000/svg" xmlns:xlink="http://www.w3.org/1999/xlink" x="0px" y="0px"
	 viewBox="161 -11 150 150" style="enable-background:new 161 -11 150 150;" xml:space="preserve">
<style type="text/css">
	.st0{clip-path:url(#SVGID_2_);}
	.st1{fill:#2CC4D1;}
	.st2{fill:#FEFEFE;}
	.st3{fill:#FDFEFE;}
</style>
<g>
	<g>
		<defs>
			<rect id="SVGID_1_" x="161" y="-10.9" width="150" height="150"/>
		</defs>
		<clipPath id="SVGID_2_">
			<use xlink:href="#SVGID_1_"  style="overflow:visible;"/>
		</clipPath>
		<g class="st0">
			<path class="st1" d="M313.8-13.9c0,50,0,100.1,0.1,150.1c0,3-0.6,3.6-3.6,3.6c-48.9-0.1-97.7-0.1-146.6,0c-3,0-3.6-0.6-3.6-3.6
				c0.1-50,0.1-100.1,0.1-150.1c1.4-0.9,3-0.5,4.5-0.5c48.3,0,96.5,0,144.8,0C310.9-14.4,312.4-14.7,313.8-13.9z"/>
			<path class="st2" d="M313.8-13.9c-51.2,0-102.4,0-153.6,0c-0.3-1.6,0.9-1,1.5-1c50.2,0,100.4,0,150.6,0
				C312.9-14.9,314.2-15.5,313.8-13.9z"/>
			<path class="st2" d="M249.8,23.5c11.9,0,23.9,0,35.8,0c3.7,0,6.5,0.9,6.5,5.1s-2.9,5.1-6.5,5c-23.9,0-47.7,0-71.6,0
				c-3.5,0-6.1-1-6.3-4.8c-0.1-4.2,2.5-5.3,6.3-5.3C225.8,23.6,237.8,23.5,249.8,23.5z"/>
			<path class="st2" d="M249.6,46.8c12,0,23.9,0,35.8,0c3.6,0,6.5,0.8,6.6,5c0,4.1-2.7,5.2-6.5,5.1c-23.9-0.1-47.7-0.1-71.6,0
				c-3.8,0-6.4-1.1-6.3-5.3c0.1-3.8,2.6-5,6.1-4.9C225.8,46.8,237.7,46.8,249.6,46.8z"/>
			<path class="st2" d="M249.7,102.3c-11.8,0-23.5-0.1-35.3,0.1c-3.6,0.1-6.6-0.7-6.8-4.8c-0.2-4.6,2.9-5.3,6.8-5.3
				c23.5,0.1,47.1,0.1,70.6,0c3.8,0,7,0.6,7,5.1c0,4.6-3.3,5.1-7,5.1C273.2,102.3,261.5,102.3,249.7,102.3z"/>
			<path class="st2" d="M249.4,79.1c-11.8,0-23.6-0.1-35.3,0c-3.3,0-6.4-0.3-6.5-4.5c0-4.2,3-4.7,6.3-4.7c23.9,0.1,47.8,0.1,71.6,0
				c3.3,0,6.4,0.4,6.5,4.5c0,4.1-3,4.7-6.3,4.7C273.6,79.1,261.5,79.1,249.4,79.1z"/>
			<path class="st3" d="M197.8,51.3c0.1,4.6-3.3,8.1-7.8,8.1c-4.6,0-8-3.3-8-8c0-4.3,3.3-7.7,7.6-7.8
				C194.1,43.4,197.6,46.7,197.8,51.3z"/>
			<path class="st3" d="M190,66.5c4.5,0.1,7.9,3.6,7.8,8.2c-0.1,4.3-3.4,7.6-7.8,7.7c-4.6,0.1-8.1-3.3-8.1-7.9
				C182,69.8,185.4,66.4,190,66.5z"/>
			<path class="st3" d="M189.9,20.5c4.5,0,7.9,3.6,7.9,8.1c0,4.5-3.4,8-7.9,8c-4.4,0-7.9-3.5-7.9-8C182,24.1,185.6,20.5,189.9,20.5z
				"/>
			<path class="st3" d="M197.8,97.5c-0.1,4.4-3.6,7.9-8,7.9c-4.3-0.1-7.9-3.8-7.8-8.2c0.1-4.4,3.6-7.9,8.1-7.8
				C194.5,89.4,197.9,92.9,197.8,97.5z"/>
		</g>
	</g>
</g>
</svg>
